<svg width="32" height="33" viewBox="0 0 32 33" fill="none" xmlns="http://www.w3.org/2000/svg">
<path d="M28 16.5001L12 16.5001M28 8.50008L12 8.50008M28 24.5001L12 24.5001M6.66667 16.5001C6.66667 17.2365 6.06971 17.8334 5.33333 17.8334C4.59695 17.8334 4 17.2365 4 16.5001C4 15.7637 4.59695 15.1667 5.33333 15.1667C6.06971 15.1667 6.66667 15.7637 6.66667 16.5001ZM6.66667 8.50008C6.66667 9.23646 6.06971 9.83341 5.33333 9.83341C4.59695 9.83341 4 9.23646 4 8.50008C4 7.7637 4.59695 7.16675 5.33333 7.16675C6.06971 7.16675 6.66667 7.7637 6.66667 8.50008ZM6.66667 24.5001C6.66667 25.2365 6.06971 25.8334 5.33333 25.8334C4.59695 25.8334 4 25.2365 4 24.5001C4 23.7637 4.59695 23.1667 5.33333 23.1667C6.06971 23.1667 6.66667 23.7637 6.66667 24.5001Z" stroke="#3B3B3B" stroke-width="2.66667" stroke-linecap="round" stroke-linejoin="round"/>
</svg>
